<!-- Generator: Adobe Illustrator 19.2.1, SVG Export Plug-In . SVG Version: 6.00 Build 0)  -->
<svg version="1.1" id="Layer_1" xmlns="http://www.w3.org/2000/svg" xmlns:xlink="http://www.w3.org/1999/xlink" x="0px" y="0px"
	 viewBox="0 0 184 89.8" style="enable-background:new 0 0 184 89.8;" xml:space="preserve">
<style type="text/css">
	.st0{fill:#C82027;}
</style>
<path class="st0" d="M62.9,26c0-8-6.5-14.5-14.5-14.5l-37.2,0v11h36.5c2.8,0,4.2,1.3,4.2,3.9v17.3c0,2.6-1.4,3.9-4.2,3.9H22.2V29.6
	h-11v29.1h36.4c4.3,0,7.9-1.4,10.9-4.3c3-2.8,4.5-6.4,4.5-10.7V26z"/>
<path class="st0" d="M123.7,44.1c0,8.1,6.5,14.6,14.6,14.6h37v-11h-36.2c-2.9,0-4.4-1.3-4.4-3.9V26.4c0-2.6,1.5-3.9,4.4-3.9h36.2
	v-11l-37.1,0c-8,0-14.5,6.5-14.5,14.5V44.1z"/>
<path class="st0" d="M119.2,26.2c0.7-8-6-14.5-14.1-14.5H61.5c3.2,2.8,5.4,6.7,6.2,11l0,0h35.8l0.6,0c2,0,3.6,1.4,3.5,3.4
	c0,2-1.9,3.7-3.8,3.7H67.9v14.4c0,5.9-2.6,11.1-6.7,14.7H105h0.1c8,0,14.5-5.9,14.2-14.1c-0.1-3.4-2.7-7.3-6.6-9.5
	C115.1,34.1,118.7,31.1,119.2,26.2z M104,47.9l-25,0v-7.1l24.8,0c2,0,3.5,1.6,3.5,3.5C107.3,46.2,105.8,47.8,104,47.9z"/>
<g>
	<path class="st0" d="M28.1,68.6c0,1.4-0.4,2.5-1.2,3.4c-0.9,1-2,1.5-3.3,1.5h-4.3c-1.2,0-2.1,0.1-2.6,0.4c-0.8,0.4-1.2,1-1.4,2
		h12.1v3.7H11.2l0-1.9c-0.1-5.3,2.6-8,8.2-8h4.3c0.5,0,0.8-0.4,0.8-1.2c0-0.8-0.3-1.2-0.8-1.2H11.9v-3.8h11.7c1.3,0,2.4,0.5,3.3,1.5
		C27.7,66.1,28.1,67.2,28.1,68.6z"/>
	<path class="st0" d="M46.6,76.5H44v3.2h-3.8v-3.2H29.7l0-3.6l9.2-9.2H44v9.1h5.3L46.6,76.5z M40.2,72.7v-5.5l-5.8,5.5H40.2z"/>
	<path class="st0" d="M61.5,63.6l-10,16h-5.1l10.3-16H61.5z"/>
	<path class="st0" d="M71.9,79.6h-5.1l8.1-12.3H61l2.3-3.8h18.7L71.9,79.6z"/>
</g>
<path class="st0" d="M86.8,63.7l-4.2,7.2h0l-5.1,8.7h0l0,0.1h97.8v-0.1v-8.7v-0.5v-6.7H86.8z M105.4,77.2h-2.7
	c-0.7,0-1.4-0.1-1.9-0.4c-0.5-0.2-1-0.6-1.4-1.2l-5.1-6c-0.2-0.2-0.4-0.4-0.7-0.6c-0.3-0.2-0.6-0.2-0.8-0.2h-0.1v8.3H90V66.4h2.7
	c0.7,0,1.3,0.1,1.8,0.4c0.5,0.2,1,0.6,1.4,1.1l5.2,6c0.2,0.2,0.4,0.4,0.7,0.6c0.3,0.2,0.5,0.2,0.8,0.2h0.1v-8.3h2.6V77.2z
	 M124.4,77.2h-11.9c-2.2,0-3.3-0.9-3.3-2.7V69c0-1.8,1.1-2.6,3.3-2.6h11.9v2.5h-11.9c-0.4,0-0.6,0.2-0.6,0.5v1.1h12.4V73h-12.4v1.1
	c0,0.4,0.2,0.5,0.6,0.5h11.9V77.2z M147.6,75.9c-0.1,0.2-0.1,0.4-0.3,0.6c-0.1,0.2-0.3,0.3-0.4,0.4c-0.2,0.1-0.3,0.2-0.5,0.3
	c-0.2,0.1-0.3,0.1-0.5,0.1h-2.1c-0.5,0-0.9-0.1-1.2-0.4c-0.4-0.2-0.6-0.6-0.8-0.9l-2.8-7h-0.9l-2.8,7c-0.2,0.4-0.4,0.7-0.8,0.9
	c-0.4,0.2-0.8,0.4-1.2,0.4h-2.1c-0.4,0-0.7-0.1-1-0.3c-0.3-0.2-0.5-0.6-0.6-1l-2.2-9.5h2.9l1.6,7.8c0.1,0.4,0.2,0.5,0.5,0.5h0.4
	c0.2,0,0.4-0.2,0.5-0.5l3-7.8h4.6l3,7.8c0.1,0.3,0.3,0.5,0.5,0.5h0.4c0.3,0,0.4-0.2,0.5-0.5l1.6-7.8h2.9L147.6,75.9z M168.5,74.6
	c0,1.7-1.1,2.6-3.3,2.6h-11.9v-2.5h11.9c0.4,0,0.6-0.1,0.6-0.4v-0.9c0-0.3-0.2-0.4-0.6-0.4h-9c-2.2,0-3.3-0.8-3.3-2.3V69
	c0-1.8,1.1-2.6,3.3-2.6h11.9v2.5h-11.9c-0.4,0-0.6,0.1-0.6,0.4v0.8c0,0.3,0.2,0.4,0.6,0.4h9c2.2,0,3.2,0.9,3.2,2.6V74.6z"/>
</svg>
